<svg xmlns="http://www.w3.org/2000/svg" viewBox="0 10 57.4 50.4">
  <defs>
    <linearGradient id="a" x2="0" y2="1" gradientUnits="objectBoundingBox">
      <stop offset="0" stop-color="#51c1ff"/>
      <stop offset=".1" stop-color="#4dd0eb"/>
      <stop offset=".3" stop-color="#49e1d5"/>
      <stop offset=".4" stop-color="#45efc3"/>
      <stop offset=".5" stop-color="#43f8b6"/>
      <stop offset=".6" stop-color="#41fdaf"/>
      <stop offset=".7" stop-color="#41ffad"/>
      <stop offset=".8" stop-color="#4fa"/>
      <stop offset=".9" stop-color="#4dffa2"/>
      <stop offset="1" stop-color="#4dffa2"/>
    </linearGradient>
  </defs>
  <path fill="url(#a)" d="M36.5 32.6a6.4 6.4 0 0 1-5.6-7L32.1 15 2 18a6.4 6.4 0 0 1-6.9-5.6A6.4 6.4 0 0 1 .8 5.5l37.4-3.9a6.2 6.2 0 0 1 4.4 1.2 6.4 6.4 0 0 1 2.7 5.9L43.4 27a6.5 6.5 0 0 1-6.3 5.6 5.8 5.8 0 0 1-.6 0z" transform="rotate(135 22 24.6)"/>
</svg>
