<svg xmlns="http://www.w3.org/2000/svg" viewBox="0 0 52.1 65">
  <defs>
    <linearGradient id="a" x2="0" y2="1" gradientUnits="objectBoundingBox">
      <stop offset="0" stop-color="#51c1ff"/>
      <stop offset=".1" stop-color="#4dd0eb"/>
      <stop offset=".3" stop-color="#49e1d5"/>
      <stop offset=".4" stop-color="#45efc3"/>
      <stop offset=".5" stop-color="#43f8b6"/>
      <stop offset=".6" stop-color="#41fdaf"/>
      <stop offset=".7" stop-color="#41ffad"/>
      <stop offset=".8" stop-color="#4fa"/>
      <stop offset=".9" stop-color="#4dffa2"/>
      <stop offset="1" stop-color="#4dffa2"/>
    </linearGradient>
  </defs>
  <path fill="url(#a)" d="M30 68.3c15.6 0 26-7.6 26-18.6 0-9.1-8.2-14.3-14.9-15C48.6 33.6 55 28 55 20.7c0-10.4-9-17.3-25-17.3A32.6 32.6 0 0 0 4.7 13.5l7.9 10.2a23.3 23.3 0 0 1 15.6-6c6 0 10.6 1.8 10.6 5.7 0 3.3-3.7 5-10.2 5-2.4 0-7.3 0-8.5-.2v14.5l8.5-.2c8.6 0 11.2 1.8 11.2 5.4 0 3.5-3.6 6.1-10.5 6.1-5.5 0-12.6-2.2-17.2-6.6l-8.2 11c5 5.7 14 10 26 10z" transform="translate(-3.9 -3.3)"/>
</svg>
