<?xml version="1.0" encoding="UTF-8" standalone="no"?>
<!-- Created with Inkscape (http://www.inkscape.org/) -->

<svg
   xmlns:dc="http://purl.org/dc/elements/1.1/"
   xmlns:cc="http://creativecommons.org/ns#"
   xmlns:rdf="http://www.w3.org/1999/02/22-rdf-syntax-ns#"
   xmlns:svg="http://www.w3.org/2000/svg"
   xmlns="http://www.w3.org/2000/svg"
   xmlns:sodipodi="http://sodipodi.sourceforge.net/DTD/sodipodi-0.dtd"
   xmlns:inkscape="http://www.inkscape.org/namespaces/inkscape"
   width="109"
   height="114"
   id="svg3562"
   version="1.1"
   inkscape:version="0.91 r13725"
   sodipodi:docname="full-logo.svg">
  <defs
     id="defs3564">
    <filter
       inkscape:collect="always"
       style="color-interpolation-filters:sRGB"
       id="filter4176-1"
       x="-0.028878551"
       width="1.0577571"
       y="-0.14206783"
       height="1.2841357">
      <feGaussianBlur
         inkscape:collect="always"
         stdDeviation="1.5127484"
         id="feGaussianBlur4178-2" />
    </filter>
  </defs>
  <sodipodi:namedview
     id="base"
     pagecolor="#ffffff"
     bordercolor="#666666"
     borderopacity="1.0"
     inkscape:pageopacity="0.0"
     inkscape:pageshadow="2"
     inkscape:zoom="1.6351441"
     inkscape:cx="186.71735"
     inkscape:cy="12.965585"
     inkscape:document-units="px"
     inkscape:current-layer="layer1"
     showgrid="false"
     inkscape:window-width="1920"
     inkscape:window-height="1017"
     inkscape:window-x="-8"
     inkscape:window-y="-8"
     inkscape:window-maximized="1" />
  <metadata
     id="metadata3567">
    <rdf:RDF>
      <cc:Work
         rdf:about="">
        <dc:format>image/svg+xml</dc:format>
        <dc:type
           rdf:resource="http://purl.org/dc/dcmitype/StillImage" />
        <dc:title></dc:title>
      </cc:Work>
    </rdf:RDF>
  </metadata>
  <g
     inkscape:label="Capa 1"
     inkscape:groupmode="layer"
     id="layer1"
     transform="translate(0,-938.36218)">
    <path
       transform="matrix(0.72722131,0,0,0.72722131,-54.558439,234.15738)"
       sodipodi:nodetypes="ccccsccacc"
       inkscape:connector-curvature="0"
       id="path7847"
       d="m 212.56967,1017.5578 -36.80009,10.2946 c -31.50681,2.259 -61.59255,-6.2629 -92.970316,-10.1868 l -2.733235,0.2309 c -0.590301,13.1616 12.54017,31.7983 34.462681,34.9954 10.9663,1.5993 27.23502,-3.6508 33.93599,-10.4598 3.07143,3.2141 5.23633,5.0138 10.05293,6.9128 11.12177,4.3607 26.6346,4.729 37.9567,-0.9265 11.85022,-5.9193 25.10775,-22.2733 24.63668,-31.1805 z"
       style="opacity:0.86499999;fill:#b4b4b4;fill-opacity:1;stroke:none;stroke-width:2.06599998;stroke-miterlimit:4;stroke-dasharray:4.132, 4.132;stroke-dashoffset:0;stroke-opacity:1;filter:url(#filter4176-1)"
       inkscape:export-xdpi="89"
       inkscape:export-ydpi="89"
       inkscape:export-filename="C:\Roberto\bibliorato\ergy\new app\4.png" />
    <path
       style="opacity:1;fill:#ffffff;fill-opacity:1;stroke:none;stroke-width:2.06599998;stroke-miterlimit:4;stroke-dasharray:4.132, 4.132;stroke-dashoffset:0;stroke-opacity:1"
       d="m 102.97307,970.60772 -97.4698122,1.9164 0.5613251,3.7747 c 1.805914,9.3506 13.4345161,20.6572 26.2282611,21.1398 8.181827,0.3031 16.013987,-2.4474 20.791142,-7.3016 2.189616,2.2913 5.119666,4.1907 8.553378,5.5445 7.928731,3.1088 17.597177,2.9597 25.399941,-0.3287 8.165068,-3.441 17.628815,-15.1366 16.555355,-22.47 z"
       id="path7853"
       inkscape:connector-curvature="0"
       sodipodi:nodetypes="ccccccscc"
       inkscape:export-xdpi="89"
       inkscape:export-ydpi="89"
       inkscape:export-filename="C:\Roberto\bibliorato\ergy\new app\4.png" />
    <path
       sodipodi:nodetypes="sssasccccccssssaassaccsssssss"
       style="opacity:1;fill:#00b5dc;fill-opacity:1"
       d="m 28.412258,991.45512 c -7.459233,-2.3312 -12.530149,-6.8945 -16.071994,-14.4633 -5.5630994,-11.8881 0.246534,-26.56455 12.552279,-32.61959 4.213052,-2.07311 6.870301,-2.38246 10.432161,-2.32055 4.027876,0.0696 6.448918,0.37544 11.698801,3.03303 3.094542,1.56667 6.3487,3.99478 6.3487,3.99478 l -4.523924,9.29093 -4.977226,9.5369 -9.079378,-4.4537 2.547123,-5.2686 2.358604,-5.10782 c 0,0 -2.470634,-0.71407 -4.617583,-0.71407 -14.190569,0 -20.13449,18.64299 -8.546454,26.80599 5.590001,3.9377 12.133458,3.8425 15.939774,-0.2322 1.038758,-1.1119 4.590047,-7.1988 7.891717,-13.5263 7.183311,-13.76631 8.338071,-16.28549 15.678777,-21.04219 2.747924,-1.78055 6.313225,-2.13912 9.587642,-2.13869 3.575629,0 6.296966,0.28485 10.468826,2.33879 21.100137,10.38749 18.380807,40.28119 -4.311172,46.91679 -4.793946,1.4019 -8.964119,1.0675 -13.244884,-0.015 -4.341863,-1.0957 -11.831687,-6.3624 -11.831687,-6.3624 l 4.914221,-9.0178 c 0,0 1.594367,1.2049 3.295419,2.456 8.364583,6.1513 19.284434,3.7831 23.570529,-4.9774 1.651851,-3.3762 1.871722,-4.534 1.515838,-7.9822 -0.789982,-7.6541 -6.76818,-13.02213 -14.502145,-13.02213 -5.697218,0 -7.966059,2.41703 -15.163843,16.15413 -6.834303,13.0435 -9.046572,16.4317 -12.704095,19.4566 -4.791659,3.9631 -12.711962,5.3133 -19.226026,3.2774 z"
       id="path7855"
       inkscape:connector-curvature="0"
       inkscape:export-xdpi="89"
       inkscape:export-ydpi="89"
       inkscape:export-filename="C:\Roberto\bibliorato\ergy\new app\4.png" />
    <path
       style="fill:#4b4c4d;fill-opacity:1"
       d="m 17.829786,1045.7657 c -0.946121,-0.4411 -1.068083,-0.6313 -0.719163,-1.1212 0.322395,-0.4527 0.422067,-0.4795 0.670697,-0.1796 0.247102,0.2979 0.931876,0.5655 1.447155,0.5655 1.153048,0 1.797299,-1.4527 1.102639,-2.4863 -0.163517,-0.2433 -0.617456,-0.6299 -1.008775,-0.8592 -1.819431,-1.0658 -2.133007,-1.4911 -2.139501,-2.9023 -0.0079,-1.7077 1.052837,-2.7056 2.732455,-2.5709 0.813588,0.065 1.75435,0.4789 1.75435,0.771 0,0.073 -0.131443,0.2904 -0.292286,0.4846 l -0.292276,0.3528 -0.441806,-0.2997 c -0.677157,-0.4596 -1.364245,-0.4084 -1.91534,0.1427 -0.385847,0.3858 -0.442581,0.5263 -0.442581,1.0964 0,0.8106 0.342246,1.263 1.406104,1.8588 1.509203,0.8452 2.009698,1.5431 2.002497,2.7926 -0.0045,0.8486 -0.289917,1.6092 -0.763662,2.0376 -0.739913,0.669 -2.056804,0.8038 -3.100507,0.3172 z m 16.094468,0.033 c -0.685223,-0.3478 -1.349101,-1.2219 -1.670889,-2.1996 -0.185088,-0.5624 -0.234407,-1.1208 -0.229902,-2.6034 0.0079,-2.1208 0.198951,-2.8635 0.991204,-3.8241 1.127097,-1.3664 3.26798,-1.3051 4.345588,0.1244 0.688133,0.9129 0.905396,1.832 0.905396,3.8299 0,1.8997 -0.166393,2.6711 -0.78904,3.6573 -0.73834,1.1696 -2.344597,1.6288 -3.552357,1.0155 z m 1.937842,-0.9864 c 1.680337,-0.9927 1.735139,-6.3311 0.07527,-7.3433 -1.201592,-0.7327 -2.322274,0.1682 -2.698044,2.1686 -0.182751,0.9729 -0.07044,3.0569 0.206534,3.8313 0.477599,1.3354 1.483173,1.8945 2.416138,1.3434 z m 13.142155,-3.6864 0,-4.6858 0.58573,0 0.585754,0 0,4.1651 0,4.1653 1.366716,0 1.366728,0 0,0.5207 0,0.5207 -1.952481,0 -1.952447,0 z m 14.220114,0 1.171798,-4.6858 0.797276,0 0.797287,10e-5 1.076654,4.393 c 0.592201,2.4161 1.111525,4.5248 1.154126,4.6858 0.07212,0.2723 0.03561,0.2929 -0.518447,0.2929 -0.661755,0 -0.579316,0.1307 -1.004945,-1.5946 l -0.152463,-0.6182 -1.400891,0 -1.400925,0 -0.152463,0.6182 c -0.423674,1.7173 -0.348661,1.5946 -0.973825,1.5946 l -0.56479,0 z m 2.614594,-0.9436 c -0.654721,-2.8811 -0.639656,-2.8288 -0.739766,-2.5708 -0.100099,0.258 -1.126018,4.7551 -1.126018,4.9359 0,0.091 0.433043,0.1405 1.217601,0.1405 l 1.217613,0 z m 12.582477,0.9436 0,-4.6858 1.631276,0 c 1.887793,0 2.320994,0.1285 2.873302,0.8527 0.31616,0.4144 0.381017,0.636 0.42164,1.4407 0.05977,1.1842 -0.265548,1.9699 -0.997945,2.4102 -0.263381,0.1582 -0.492642,0.2962 -0.509438,0.3066 -0.01618,0.011 0.349268,0.9661 0.81351,2.1241 0.464241,1.1579 0.8441,2.1381 0.8441,2.1785 0,0.04 -0.27175,0.055 -0.603908,0.034 l -0.603908,-0.039 -0.781985,-2.05 -0.781986,-2.0501 -0.566587,0 -0.566553,0 0,2.0827 0,2.0826 -0.585765,0 -0.585753,0 z m 2.981276,-0.555 c 0.75627,-0.3888 1.062689,-1.4832 0.675415,-2.4123 -0.236889,-0.5684 -0.739541,-0.8074 -1.697739,-0.8074 l -0.787434,0 0,1.6921 0,1.6921 0.748439,0 c 0.41163,0 0.88923,-0.074 1.061319,-0.1626 z m -21.970688,-10.7147 c -4.082542,-1.098 -5.772081,-5.6673 -4.296154,-11.6189 1.140668,-4.5995 4.073117,-8.0075 7.509527,-8.7271 2.271966,-0.4759 4.990693,0.2548 6.141202,1.6505 l 0.380579,0.4618 -0.510146,0.5963 c -0.280535,0.3279 -0.907395,1.0265 -1.392971,1.5524 l -0.882848,0.9561 -0.53576,-0.5114 c -0.949345,-0.9059 -2.450504,-1.0575 -3.629965,-0.3662 -1.602201,0.939 -2.967136,3.6476 -3.330705,6.6097 -0.479779,3.9088 1.034709,6.1799 3.720091,5.579 1.072071,-0.2398 1.103168,-0.2866 1.443426,-2.1691 0.167292,-0.9253 0.306599,-1.7829 0.309722,-1.9056 0.0045,-0.1937 -0.163517,-0.2282 -1.269572,-0.2603 l -1.275211,-0.037 0.319923,-1.7899 0.319957,-1.7897 3.178419,0 3.178418,0 -0.07482,0.358 c -0.04112,0.1968 -0.427482,2.408 -0.858469,4.9136 -0.430999,2.5058 -0.813981,4.6912 -0.851055,4.8564 -0.08875,0.3958 -2.109426,1.3832 -3.377807,1.6506 -1.148892,0.2423 -3.298425,0.2376 -4.215723,-0.011 z m -42.70863,-0.4776 c 0,-0.2141 3.245668,-18.9691 3.333847,-19.2646 0.06302,-0.2112 0.397171,-0.2277 4.614956,-0.2277 2.500857,0 4.548078,0.044 4.549404,0.098 0,0.054 -0.124759,0.8737 -0.28003,1.8224 l -0.282434,1.7247 -2.581094,0 c -2.570117,0 -2.58143,0 -2.648095,0.2929 -0.03696,0.1611 -0.187627,0.9957 -0.335057,1.8548 -0.147385,0.8591 -0.298084,1.6644 -0.334742,1.7897 -0.0619,0.2113 0.109649,0.2278 2.350091,0.2278 1.783054,0 2.416812,0.04 2.416812,0.155 0,0.085 -0.125826,0.8747 -0.279468,1.7544 l -0.27948,1.5993 -2.413902,0.036 -2.413914,0.036 -0.3573,2.0175 c -0.196491,1.1096 -0.360952,2.12 -0.365479,2.2453 -0.0079,0.2102 0.208713,0.2278 2.790368,0.2278 1.539188,0 2.798514,0.018 2.798514,0.039 0,0.021 -0.146104,0.8563 -0.324855,1.8549 -0.178684,0.9985 -0.325092,1.8303 -0.325406,1.8482 -1.91e-4,0.018 -2.167778,0.033 -4.816649,0.033 -3.763857,0 -4.816087,-0.036 -4.816087,-0.1626 z m 17.311901,0.045 c 0,-0.1434 3.074837,-17.8894 3.266732,-18.8537 l 0.135982,-0.6833 3.342486,0 c 3.658197,0 4.704686,0.132 5.678613,0.7028 0.782097,0.4583 1.424955,1.223 1.773066,2.109 0.426965,1.0868 0.428932,3.3694 0.0034,4.6053 -0.496787,1.4449 -1.464186,2.6079 -2.675373,3.216 -0.361221,0.1813 -0.669,0.34 -0.683908,0.3522 -0.02685,0.023 1.958952,7.9318 2.114032,8.4205 0.07785,0.2451 0.009,0.2521 -2.174766,0.2176 l -2.255103,-0.036 -0.809195,-3.905 c -0.445076,-2.1477 -0.811162,-3.9196 -0.813543,-3.9374 -0.0022,-0.018 -0.328305,-0.033 -0.724297,-0.033 -0.458455,0 -0.740935,0.058 -0.777671,0.1628 -0.03168,0.09 -0.323777,1.7149 -0.648992,3.6121 -0.325204,1.8972 -0.62422,3.6105 -0.664462,3.8073 l -0.07314,0.3581 -2.007227,0 c -1.113132,0 -2.007203,-0.053 -2.007203,-0.1181 z m 8.562519,-11.0181 c 1.127479,-0.471 1.713142,-1.4361 1.717647,-2.8306 0.0045,-1.6109 -0.628141,-2.1656 -2.478882,-2.171 l -0.984824,-0.011 -0.41682,2.4406 c -0.229239,1.3422 -0.41572,2.5138 -0.414417,2.6032 0.0034,0.2454 1.967355,0.2154 2.577296,-0.039 z m 33.829315,10.8433 c 0.02876,-0.1614 0.309914,-1.7509 0.624872,-3.5326 l 0.572598,-3.2396 -1.23096,-5.7876 c -0.677022,-3.1832 -1.282267,-6.016 -1.344955,-6.295 l -0.114074,-0.5074 2.241419,0 2.241386,0 0.493204,4.0025 c 0.271256,2.2014 0.532176,4.0454 0.579822,4.0977 0.04763,0.052 0.960804,-1.7489 2.029245,-4.0025 l 1.94264,-4.0977 2.307669,0 2.307681,0 -3.591622,6.2804 -3.591599,6.2805 -0.56598,3.2541 c -0.311273,1.7898 -0.595954,3.3858 -0.632601,3.5472 -0.06572,0.289 -0.09437,0.2927 -2.193831,0.2927 l -2.127165,0 z"
       id="path12304"
       inkscape:connector-curvature="0"
       sodipodi:nodetypes="sssssssssscsssssssssssssssssssscccccccccccccccccsssscccssccsssscsccsssscssscccccccccccssccccccsssscsscssssscscccccsssssssscscssscssscccscssscsscscssssscsscscsssscscccsccsccccscsscccscscccccssscc"
       inkscape:export-xdpi="89"
       inkscape:export-ydpi="89"
       inkscape:export-filename="C:\Roberto\bibliorato\ergy\new app\1.png" />
  </g>
</svg>
