<?xml version="1.0" encoding="UTF-8" standalone="no"?>
<!-- Created with Inkscape (http://www.inkscape.org/) -->

<svg
   xmlns:dc="http://purl.org/dc/elements/1.1/"
   xmlns:cc="http://creativecommons.org/ns#"
   xmlns:rdf="http://www.w3.org/1999/02/22-rdf-syntax-ns#"
   xmlns:svg="http://www.w3.org/2000/svg"
   xmlns="http://www.w3.org/2000/svg"
   xmlns:sodipodi="http://sodipodi.sourceforge.net/DTD/sodipodi-0.dtd"
   xmlns:inkscape="http://www.inkscape.org/namespaces/inkscape"
   width="235"
   height="70"
   id="svg3562"
   version="1.1"
   inkscape:version="0.91 r13725"
   sodipodi:docname="logo.svg">
  <defs
     id="defs3564">
    <filter
       inkscape:collect="always"
       style="color-interpolation-filters:sRGB"
       id="filter4176-1"
       x="-0.028878551"
       width="1.0577571"
       y="-0.14206783"
       height="1.2841357">
      <feGaussianBlur
         inkscape:collect="always"
         stdDeviation="1.5127484"
         id="feGaussianBlur4178-2" />
    </filter>
  </defs>
  <sodipodi:namedview
     id="base"
     pagecolor="#ffffff"
     bordercolor="#666666"
     borderopacity="1.0"
     inkscape:pageopacity="0.0"
     inkscape:pageshadow="2"
     inkscape:zoom="1.1455651"
     inkscape:cx="-136.44572"
     inkscape:cy="-151.06241"
     inkscape:document-units="px"
     inkscape:current-layer="layer1"
     showgrid="false"
     inkscape:window-width="1920"
     inkscape:window-height="1009"
     inkscape:window-x="-8"
     inkscape:window-y="-8"
     inkscape:window-maximized="1" />
  <metadata
     id="metadata3567">
    <rdf:RDF>
      <cc:Work
         rdf:about="">
        <dc:format>image/svg+xml</dc:format>
        <dc:type
           rdf:resource="http://purl.org/dc/dcmitype/StillImage" />
        <dc:title></dc:title>
      </cc:Work>
    </rdf:RDF>
  </metadata>
  <g
     inkscape:label="Capa 1"
     inkscape:groupmode="layer"
     id="layer1"
     transform="translate(0,-982.36218)">
    <path
       transform="matrix(0.72722131,0,0,0.72722131,-54.558439,280.63646)"
       sodipodi:nodetypes="ccccsccacc"
       inkscape:connector-curvature="0"
       id="path7847"
       d="m 212.56967,1017.5578 -36.80009,10.2946 c -31.50681,2.259 -61.59255,-6.2629 -92.970316,-10.1868 l -2.733235,0.2309 c -0.590301,13.1616 12.54017,31.7983 34.462681,34.9954 10.9663,1.5993 27.23502,-3.6508 33.93599,-10.4598 3.07143,3.2141 5.23633,5.0138 10.05293,6.9128 11.12177,4.3607 26.6346,4.729 37.9567,-0.9265 11.85022,-5.9193 25.10775,-22.2733 24.63668,-31.1805 z"
       style="opacity:0.86499999;fill:#b4b4b4;fill-opacity:1;stroke:none;stroke-width:2.06599998;stroke-miterlimit:4;stroke-dasharray:4.132, 4.132;stroke-dashoffset:0;stroke-opacity:1;filter:url(#filter4176-1)"
       inkscape:export-xdpi="89"
       inkscape:export-ydpi="89"
       inkscape:export-filename="C:\Roberto\bibliorato\ergy\new app\4.png" />
    <path
       style="opacity:1;fill:#ffffff;fill-opacity:1;stroke:none;stroke-width:2.06599998;stroke-miterlimit:4;stroke-dasharray:4.132, 4.132;stroke-dashoffset:0;stroke-opacity:1"
       d="m 102.97307,1017.0868 -97.4698122,1.9164 0.5613251,3.7747 c 1.805914,9.3506 13.4345161,20.6572 26.2282611,21.1398 8.181827,0.3031 16.013987,-2.4474 20.791142,-7.3016 2.189616,2.2913 5.119666,4.1907 8.553378,5.5445 7.928731,3.1088 17.597177,2.9597 25.399941,-0.3287 8.165068,-3.441 17.628815,-15.1366 16.555355,-22.47 z"
       id="path7853"
       inkscape:connector-curvature="0"
       sodipodi:nodetypes="ccccccscc"
       inkscape:export-xdpi="89"
       inkscape:export-ydpi="89"
       inkscape:export-filename="C:\Roberto\bibliorato\ergy\new app\4.png" />
    <path
       sodipodi:nodetypes="sssasccccccssssaassaccsssssss"
       style="opacity:1;fill:#00b5dc;fill-opacity:1"
       d="m 28.412258,1037.9342 c -7.459233,-2.3312 -12.530149,-6.8945 -16.071994,-14.4633 -5.5630994,-11.8881 0.246534,-26.56455 12.552279,-32.61959 4.213052,-2.07311 6.870301,-2.38246 10.432161,-2.32055 4.027876,0.0696 6.448918,0.37544 11.698801,3.03303 3.094542,1.56667 6.3487,3.99478 6.3487,3.99478 l -4.523924,9.29093 -4.977226,9.5369 -9.079378,-4.4537 2.547123,-5.2686 2.358604,-5.10782 c 0,0 -2.470634,-0.71407 -4.617583,-0.71407 -14.190569,0 -20.13449,18.64299 -8.546454,26.80599 5.590001,3.9377 12.133458,3.8425 15.939774,-0.2322 1.038758,-1.1119 4.590047,-7.1988 7.891717,-13.5263 7.183311,-13.76631 8.338071,-16.28549 15.678777,-21.04219 2.747924,-1.78055 6.313225,-2.13912 9.587642,-2.13869 3.575629,0 6.296966,0.28485 10.468826,2.33879 21.100137,10.38749 18.380807,40.28119 -4.311172,46.91679 -4.793946,1.4019 -8.964119,1.0675 -13.244884,-0.015 -4.341863,-1.0957 -11.831687,-6.3624 -11.831687,-6.3624 l 4.914221,-9.0178 c 0,0 1.594367,1.2049 3.295419,2.456 8.364583,6.1513 19.284434,3.7831 23.570529,-4.9774 1.651851,-3.3762 1.871722,-4.534 1.515838,-7.9822 -0.789982,-7.6541 -6.76818,-13.02213 -14.502145,-13.02213 -5.697218,0 -7.966059,2.41703 -15.163843,16.15413 -6.834303,13.0435 -9.046572,16.4317 -12.704095,19.4566 -4.791659,3.9631 -12.711962,5.3133 -19.226026,3.2774 z"
       id="path7855"
       inkscape:connector-curvature="0"
       inkscape:export-xdpi="89"
       inkscape:export-ydpi="89"
       inkscape:export-filename="C:\Roberto\bibliorato\ergy\new app\4.png" />
    <path
       inkscape:export-filename="C:\Roberto\bibliorato\ergy\new app\1.png"
       inkscape:export-ydpi="89"
       inkscape:export-xdpi="89"
       sodipodi:nodetypes="ssscsscssssscscccccsssssssccscssscssscccscssscsscsccsssscsscscsssscscccsccsccccsccscccscscccccsssccscc"
       inkscape:connector-curvature="0"
       id="path3339"
       d="m 153.88277,1014.932 c -4.14589,-1.1151 -5.86165,-5.7553 -4.36282,-11.7992 1.15837,-4.67086 4.13633,-8.13177 7.62607,-8.86254 2.30722,-0.48328 5.06814,0.25876 6.23651,1.67612 l 0.38648,0.46898 -0.51806,0.60556 c -0.28489,0.33299 -0.92147,1.04243 -1.41459,1.57649 l -0.89655,0.97094 -0.54408,-0.51934 c -0.96407,-0.91996 -2.48853,-1.07391 -3.68629,-0.37188 -1.62706,0.95357 -3.01319,3.70417 -3.3824,6.71227 -0.48723,3.9694 1.05077,6.2758 3.77782,5.6655 1.08871,-0.2435 1.12029,-0.291 1.46583,-2.2027 0.16989,-0.9397 0.31136,-1.8106 0.31453,-1.9352 0.005,-0.1967 -0.16606,-0.2317 -1.28927,-0.2643 l -1.295,-0.038 0.32488,-1.8177 0.32493,-1.8175 3.22774,0 3.22775,0 -0.076,0.3636 c -0.0417,0.1998 -0.43412,2.4454 -0.87179,4.9898 -0.43769,2.5447 -0.82661,4.764 -0.86427,4.9318 -0.0902,0.402 -2.14216,1.4047 -3.43023,1.6762 -1.16672,0.2461 -3.34961,0.2413 -4.28115,-0.011 z m -43.37143,-0.485 c 0,-0.2174 3.29604,-19.26348 3.38559,-19.56357 0.064,-0.21448 0.40333,-0.23123 4.68658,-0.23123 2.53966,0 4.61865,0.0447 4.62,0.0995 0,0.0548 -0.12669,0.88726 -0.28437,1.8507 l -0.28682,1.75147 -2.62115,0 c -2.61,0 -2.6215,0 -2.68919,0.29744 -0.0376,0.1636 -0.19054,1.01116 -0.34026,1.88359 -0.14967,0.8724 -0.30271,1.6902 -0.33993,1.8174 -0.0629,0.2146 0.11135,0.2314 2.38656,0.2314 1.81072,0 2.45431,0.041 2.45431,0.1574 0,0.086 -0.12777,0.8883 -0.2838,1.7816 l -0.28382,1.6241 -2.45136,0.037 -2.45137,0.037 -0.36285,2.0489 c -0.19954,1.1268 -0.36655,2.1529 -0.37115,2.2801 -0.008,0.2135 0.21195,0.2313 2.83367,0.2313 1.56307,0 2.84194,0.018 2.84194,0.04 0,0.021 -0.14836,0.8696 -0.32989,1.8837 -0.18146,1.014 -0.33014,1.8587 -0.33046,1.8769 -1.9e-4,0.018 -2.20142,0.034 -4.8914,0.034 -3.82227,0 -4.89083,-0.036 -4.89083,-0.1651 z m 17.58057,0.046 c 0,-0.1457 3.12256,-18.16703 3.31743,-19.14629 l 0.13809,-0.69391 3.39436,0 c 3.71497,0 4.7777,0.13405 5.76674,0.71371 0.79423,0.46541 1.44707,1.242 1.80058,2.14175 0.4336,1.10367 0.4356,3.42164 0.003,4.67674 -0.50449,1.4673 -1.48691,2.6484 -2.71689,3.2659 -0.36683,0.1841 -0.67938,0.3453 -0.69453,0.3577 -0.0272,0.023 1.98936,8.0549 2.14684,8.5511 0.0791,0.2489 0.009,0.256 -2.20851,0.221 l -2.2901,-0.036 -0.82175,-3.9656 c -0.45199,-2.1811 -0.82375,-3.9805 -0.82617,-3.9986 -0.002,-0.018 -0.3334,-0.034 -0.73554,-0.034 -0.46556,0 -0.75243,0.059 -0.78974,0.1654 -0.0322,0.091 -0.3288,1.7415 -0.65906,3.6681 -0.33026,1.9267 -0.63391,3.6665 -0.67477,3.8664 l -0.0742,0.3637 -2.03838,0 c -1.1304,0 -2.03835,-0.054 -2.03835,-0.12 z m 8.6954,-11.1891 c 1.14498,-0.4783 1.73974,-1.4584 1.74431,-2.8745 0.004,-1.6359 -0.63789,-2.19921 -2.51735,-2.20469 l -1.00012,-0.0112 -0.42329,2.47849 c -0.23278,1.363 -0.42217,2.5528 -0.42084,2.6436 0.003,0.2492 1.99788,0.2187 2.61729,-0.04 z m 34.35432,11.0116 c 0.0292,-0.1639 0.31472,-1.7781 0.63457,-3.5875 l 0.58149,-3.2898 -1.25007,-5.8775 c -0.68752,-3.23251 -1.30217,-6.10929 -1.36583,-6.39262 l -0.11584,-0.51528 2.27621,0 2.27616,0 0.50086,4.06464 c 0.27546,2.23556 0.54043,4.10816 0.58882,4.16126 0.0483,0.053 0.97571,-1.7761 2.06074,-4.06458 l 1.97279,-4.16132 2.34348,0 2.3435,0 -3.64737,6.3778 -3.64734,6.378 -0.57476,3.3046 c -0.3161,1.8176 -0.6052,3.4384 -0.64242,3.6023 -0.0667,0.2934 -0.0959,0.2972 -2.22788,0.2972 l -2.16017,0 z"
       style="fill:#4b4c4d;fill-opacity:1" />
    <path
       inkscape:export-filename="C:\Roberto\bibliorato\ergy\new app\1.png"
       inkscape:export-ydpi="89"
       inkscape:export-xdpi="89"
       sodipodi:nodetypes="sssssssssscsssssss"
       inkscape:connector-curvature="0"
       id="path3348"
       d="m 188.38661,1013.8718 c -0.99707,-0.4649 -1.12559,-0.6653 -0.75789,-1.1816 0.33976,-0.477 0.44479,-0.5053 0.70681,-0.1893 0.26039,0.314 0.98204,0.596 1.52503,0.596 1.21513,0 1.89405,-1.5309 1.162,-2.6202 -0.1723,-0.2563 -0.65068,-0.6637 -1.06307,-0.9054 -1.91735,-1.1231 -2.24782,-1.5713 -2.25466,-3.0585 -0.008,-1.7995 1.1095,-2.8511 2.87953,-2.7092 0.85739,0.069 1.84878,0.5047 1.84878,0.8125 0,0.077 -0.13852,0.306 -0.30801,0.5107 l -0.30801,0.3718 -0.46559,-0.3159 c -0.71361,-0.4843 -1.43767,-0.4304 -2.01845,0.1504 -0.4066,0.4065 -0.46639,0.5546 -0.46639,1.1554 0,0.8542 0.36067,1.3311 1.48179,1.9589 1.59044,0.8906 2.11787,1.626 2.11028,2.9429 -0.005,0.8942 -0.30551,1.6958 -0.80477,2.1472 -0.77973,0.705 -2.16751,0.8471 -3.26738,0.3343 z"
       style="fill:#4b4c4d;fill-opacity:1" />
    <path
       style="fill:#4b4c4d;fill-opacity:1"
       d="m 222.74251,1008.9839 0,-4.938 1.71907,0 c 1.9894,0 2.44593,0.1355 3.02797,0.8987 0.33317,0.4366 0.40152,0.6701 0.44433,1.5182 0.063,1.2479 -0.27984,2.0759 -1.05166,2.5398 -0.27756,0.1669 -0.51915,0.3122 -0.53686,0.3232 -0.0171,0.011 0.36808,1.0181 0.8573,2.2383 0.48923,1.2204 0.88953,2.2533 0.88953,2.2958 0,0.042 -0.28638,0.058 -0.63642,0.036 l -0.63642,-0.041 -0.82406,-2.1602 -0.82408,-2.1606 -0.59708,0 -0.59705,0 0,2.1949 0,2.1946 -0.6173,0 -0.61727,0 z m 3.14174,-0.5848 c 0.79697,-0.4097 1.11988,-1.563 0.71178,-2.5422 -0.24965,-0.5989 -0.77935,-0.8508 -1.78912,-0.8508 l -0.82983,0 0,1.7831 0,1.7833 0.78872,0 c 0.43379,0 0.9371,-0.078 1.11845,-0.1715 z"
       id="path3350"
       inkscape:connector-curvature="0"
       sodipodi:nodetypes="csssscssscccccccccccssccccccs"
       inkscape:export-xdpi="89"
       inkscape:export-ydpi="89"
       inkscape:export-filename="C:\Roberto\bibliorato\ergy\new app\1.png" />
    <path
       inkscape:export-filename="C:\Roberto\bibliorato\ergy\new app\1.png"
       inkscape:export-ydpi="89"
       inkscape:export-xdpi="89"
       sodipodi:nodetypes="sccsssscccssccscsscsc"
       inkscape:connector-curvature="0"
       id="path3352"
       d="m 214.1823,1008.9835 1.23487,-4.938 0.8402,0 0.8402,0 1.1346,4.6295 c 0.62408,2.5462 1.17135,4.7684 1.21627,4.938 0.076,0.2869 0.0374,0.3087 -0.54636,0.3087 -0.69739,0 -0.61051,0.1378 -1.05904,-1.6804 l -0.16067,-0.6515 -1.47631,0 -1.47633,0 -0.16067,0.6515 c -0.44647,1.8097 -0.36742,1.6804 -1.02623,1.6804 l -0.5952,0 z m 2.75533,-0.9944 c -0.68995,-3.0362 -0.67409,-2.9811 -0.77958,-2.7092 -0.10549,0.2719 -1.18663,5.011 -1.18663,5.2016 0,0.096 0.45636,0.148 1.28315,0.148 l 1.28315,0 z"
       style="fill:#4b4c4d;fill-opacity:1" />
    <path
       style="fill:#4b4c4d;fill-opacity:1"
       d="m 205.56745,1008.9847 0,-4.9381 0.61726,0 0.61728,0 0,4.3892 0,4.3896 1.44028,0 1.4403,0 0,0.5487 0,0.5487 -2.05758,0 -2.05754,0 z"
       id="path3354"
       inkscape:connector-curvature="0"
       sodipodi:nodetypes="ccccccccccccc"
       inkscape:export-xdpi="89"
       inkscape:export-ydpi="89"
       inkscape:export-filename="C:\Roberto\bibliorato\ergy\new app\1.png" />
    <path
       inkscape:export-filename="C:\Roberto\bibliorato\ergy\new app\1.png"
       inkscape:export-ydpi="89"
       inkscape:export-xdpi="89"
       sodipodi:nodetypes="sssssssscssssc"
       inkscape:connector-curvature="0"
       id="path3356"
       d="m 197.7273,1013.9074 c -0.72211,-0.3666 -1.42171,-1.2877 -1.76082,-2.318 -0.19505,-0.5928 -0.24703,-1.1812 -0.24228,-2.7436 0.008,-2.2349 0.20965,-3.0176 1.04456,-4.0299 1.18776,-1.4399 3.44388,-1.3753 4.57948,0.1311 0.72519,0.962 0.95414,1.9306 0.95414,4.0361 0,2.002 -0.17534,2.8148 -0.83151,3.8541 -0.77808,1.2326 -2.4708,1.7165 -3.74357,1.0702 z m 2.04216,-1.0396 c 1.77077,-1.0461 1.82852,-6.6719 0.0794,-7.7385 -1.26629,-0.7721 -2.44729,0.1773 -2.84329,2.2853 -0.19258,1.0253 -0.0742,3.2215 0.21765,4.0375 0.50331,1.4072 1.56302,1.9965 2.54619,1.4157 z"
       style="fill:#4b4c4d;fill-opacity:1" />
  </g>
</svg>
