<?xml version="1.0" encoding="UTF-8" standalone="no"?>
<!-- Created with Inkscape (http://www.inkscape.org/) -->

<svg
   xmlns:dc="http://purl.org/dc/elements/1.1/"
   xmlns:cc="http://creativecommons.org/ns#"
   xmlns:rdf="http://www.w3.org/1999/02/22-rdf-syntax-ns#"
   xmlns:svg="http://www.w3.org/2000/svg"
   xmlns="http://www.w3.org/2000/svg"
   xmlns:sodipodi="http://sodipodi.sourceforge.net/DTD/sodipodi-0.dtd"
   xmlns:inkscape="http://www.inkscape.org/namespaces/inkscape"
   width="180"
   height="95"
   id="svg3562"
   version="1.1"
   inkscape:version="0.91 r13725"
   sodipodi:docname="logo-form.svg">
  <defs
     id="defs3564" />
  <sodipodi:namedview
     id="base"
     pagecolor="#ffffff"
     bordercolor="#666666"
     borderopacity="1.0"
     inkscape:pageopacity="0.0"
     inkscape:pageshadow="2"
     inkscape:zoom="2.7711738"
     inkscape:cx="103.84319"
     inkscape:cy="43.03663"
     inkscape:document-units="px"
     inkscape:current-layer="layer1"
     showgrid="false"
     inkscape:window-width="1920"
     inkscape:window-height="1009"
     inkscape:window-x="-8"
     inkscape:window-y="-8"
     inkscape:window-maximized="1" />
  <metadata
     id="metadata3567">
    <rdf:RDF>
      <cc:Work
         rdf:about="">
        <dc:format>image/svg+xml</dc:format>
        <dc:type
           rdf:resource="http://purl.org/dc/dcmitype/StillImage" />
        <dc:title></dc:title>
      </cc:Work>
    </rdf:RDF>
  </metadata>
  <g
     inkscape:label="Capa 1"
     inkscape:groupmode="layer"
     id="layer1"
     transform="translate(0,-957.36218)">
    <path
       inkscape:connector-curvature="0"
       id="path4187"
       d="m 68.753188,1005.7222 c -6.31119,-1.9724 -10.60167,-5.83347 -13.59836,-12.23725 -4.70688,-10.05833 0.20868,-22.47603 10.62036,-27.59913 3.56462,-1.754 5.81289,-2.0158 8.82652,-1.9634 3.40799,0.059 5.45639,0.3177 9.89826,2.5663 2.61828,1.3254 5.37158,3.3799 5.37158,3.3799 l -3.82762,7.8609 -4.21119,8.0692 -7.68197,-3.7683 2.15508,-4.4576 1.99559,-4.3218 c 0,0 -2.09038,-0.6041 -3.90688,-0.6041 -12.00651,0 -17.03561,15.7737 -7.23108,22.68023 4.72965,3.33172 10.26601,3.25112 13.48647,-0.1964 0.87888,-0.9408 3.8836,-6.09083 6.67712,-11.44453 6.07774,-11.6475 7.05477,-13.7791 13.265682,-17.8036 2.325,-1.5065 5.34154,-1.8099 8.11199,-1.8095 3.02531,4e-4 5.3278,0.2411 8.85759,1.9788 17.85262,8.7888 15.55183,34.08168 -3.64766,39.69588 -4.05609,1.186 -7.58443,0.9032 -11.20637,-0.011 -3.673584,-0.927 -10.010642,-5.3831 -10.010642,-5.3831 l 4.15785,-7.62995 c 0,0 1.34898,1.0195 2.788248,2.0781 7.077174,5.20455 16.316344,3.20092 19.942784,-4.2113 1.39762,-2.85663 1.58364,-3.83623 1.28254,-6.75373 -0.66838,-6.476 -5.72651,-11.0179 -12.27015,-11.0179 -4.82034,0 -6.73997,2.045 -12.829952,13.6679 -5.78245,11.03593 -7.65426,13.90258 -10.74883,16.46198 -4.05417,3.3531 -10.75547,4.4955 -16.26696,2.773 z"
       style="opacity:1;fill:#00b5dc;fill-opacity:1"
       sodipodi:nodetypes="sssasccccccssssaassaccsssssss"
       inkscape:export-xdpi="89"
       inkscape:export-ydpi="89"
       inkscape:export-filename="C:\Roberto\bibliorato\ergy\new app\1.png" />
    <path
       style="fill:#4b4c4d;fill-opacity:1"
       d="m 62.875738,1046.4015 c -0.84216,-0.3926 -0.95072,-0.5619 -0.64014,-0.998 0.28697,-0.403 0.37569,-0.4268 0.597,-0.1599 0.21995,0.2652 0.82948,0.5034 1.28814,0.5034 1.02635,0 1.59981,-1.2931 0.98148,-2.2131 -0.14555,-0.2166 -0.54961,-0.5607 -0.89793,-0.7648 -1.61951,-0.9487 -1.89863,-1.3273 -1.90441,-2.5834 -0.007,-1.5201 0.93715,-2.4083 2.43221,-2.2884 0.72419,0.058 1.56158,0.4263 1.56158,0.6863 0,0.065 -0.117,0.2585 -0.26017,0.4313 l -0.26016,0.3141 -0.39326,-0.2668 c -0.60275,-0.4091 -1.21434,-0.3635 -1.70488,0.127 -0.34345,0.3434 -0.39395,0.4685 -0.39395,0.9759 0,0.7216 0.30464,1.1243 1.2516,1.6546 1.34337,0.7523 1.78887,1.3735 1.78246,2.4857 -0.004,0.7554 -0.25806,1.4324 -0.67975,1.8137 -0.65861,0.5955 -1.8308,0.7155 -2.75982,0.2824 z m 14.32599,0.029 c -0.60993,-0.3096 -1.20086,-1.0876 -1.48729,-1.9579 -0.16475,-0.5006 -0.20865,-0.9976 -0.20464,-2.3173 0.007,-1.8878 0.17709,-2.5489 0.88229,-3.4039 1.00325,-1.2163 2.90889,-1.1617 3.86809,0.1107 0.61252,0.8126 0.80591,1.6307 0.80591,3.4091 0,1.6909 -0.14811,2.3776 -0.70234,3.2554 -0.65721,1.0411 -2.08697,1.4498 -3.16202,0.9039 z m 1.72491,-0.878 c 1.4957,-0.8836 1.54448,-5.6354 0.067,-6.5364 -1.06956,-0.6522 -2.0671,0.1497 -2.40158,1.9303 -0.16267,0.866 -0.0627,2.721 0.18384,3.4103 0.42512,1.1887 1.3202,1.6863 2.15065,1.1958 z m 11.69808,-3.2813 0,-4.171 0.52137,0 0.52139,0 0,3.7075 0,3.7076 1.21654,0 1.21655,0 0,0.4635 0,0.4635 -1.73794,0 -1.73791,0 z m 12.657592,0 1.04304,-4.171 0.70967,0 0.70968,10e-5 0.95835,3.9103 c 0.52713,2.1506 0.98939,4.0276 1.02731,4.1709 0.0642,0.2424 0.0317,0.2608 -0.46148,0.2608 -0.58904,0 -0.51566,0.1163 -0.89452,-1.4194 l -0.13571,-0.5503 -1.24696,0 -1.24699,0 -0.13571,0.5503 c -0.37712,1.5286 -0.31035,1.4194 -0.86682,1.4194 l -0.50273,0 z m 2.3273,-0.84 c -0.58278,-2.5645 -0.56937,-2.5179 -0.65848,-2.2883 -0.0891,0.2297 -1.00229,4.2326 -1.00229,4.3936 0,0.081 0.38546,0.125 1.08381,0.125 l 1.08382,0 z m 11.1999,0.84 0,-4.171 1.45203,0 c 1.68036,0 2.06596,0.1144 2.55758,0.759 0.28142,0.3689 0.33915,0.5662 0.37531,1.2824 0.0532,1.0541 -0.23637,1.7535 -0.88829,2.1454 -0.23444,0.1408 -0.43851,0.2637 -0.45346,0.2729 -0.0144,0.01 0.31089,0.86 0.72412,1.8907 0.41323,1.0307 0.75135,1.9032 0.75135,1.9391 0,0.036 -0.24189,0.049 -0.53755,0.03 l -0.53755,-0.035 -0.69606,-1.8248 -0.69606,-1.8248 -0.50433,0 -0.5043,0 0,1.8538 0,1.8538 -0.5214,0 -0.52139,0 z m 2.65369,-0.4941 c 0.67317,-0.346 0.94592,-1.3202 0.6012,-2.1472 -0.21086,-0.5059 -0.65828,-0.7187 -1.51119,-0.7187 l -0.70091,0 0,1.5062 0,1.5062 0.6662,0 c 0.3664,0 0.79152,-0.066 0.9447,-0.1448 z m -19.556524,-9.5373 c -3.633948,-0.9773 -5.137838,-5.0445 -3.824088,-10.3421 1.01533,-4.0941 3.625558,-7.1276 6.684372,-7.7682 2.02232,-0.4236 4.44231,0.2268 5.4664,1.4692 l 0.33876,0.411 -0.45409,0.5308 c -0.24971,0.2919 -0.80769,0.9137 -1.23991,1.3818 l -0.78584,0.8511 -0.47689,-0.4552 c -0.84503,-0.8064 -2.18124,-0.9413 -3.2311,-0.326 -1.42615,0.8358 -2.641104,3.2468 -2.964724,5.8834 -0.42706,3.4793 0.921014,5.5009 3.311324,4.966 0.95427,-0.2135 0.98195,-0.2551 1.28482,-1.9308 0.14891,-0.8236 0.27291,-1.587 0.27569,-1.6962 0.004,-0.1724 -0.14555,-0.2031 -1.13007,-0.2317 l -1.13509,-0.033 0.28477,-1.5932 0.2848,-1.5931 2.82917,0 2.82917,0 -0.0666,0.3187 c -0.0366,0.1752 -0.38051,2.1434 -0.76414,4.3737 -0.38364,2.2304 -0.72454,4.1757 -0.75754,4.3228 -0.079,0.3523 -1.87764,1.2311 -3.00665,1.4691 -1.02265,0.2157 -2.93599,0.2115 -3.752494,-0.01 z m -38.015758,-0.4251 c 0,-0.1905 2.88903,-16.8847 2.96752,-17.1477 0.0561,-0.188 0.35353,-0.2027 4.10786,-0.2027 2.22606,0 4.04833,0.039 4.04951,0.087 0,0.048 -0.11105,0.7777 -0.24926,1.6221 l -0.2514,1.5352 -2.29748,0 c -2.28771,0 -2.29778,0 -2.35712,0.2607 -0.0329,0.1434 -0.16701,0.8863 -0.29824,1.651 -0.13119,0.7647 -0.26533,1.4815 -0.29796,1.5931 -0.0551,0.188 0.0976,0.2027 2.09186,0.2027 1.58713,0 2.15125,0.036 2.15125,0.138 0,0.076 -0.112,0.7786 -0.24876,1.5616 l -0.24877,1.4236 -2.14866,0.032 -2.14867,0.032 -0.31804,1.7958 c -0.1749,0.9877 -0.32129,1.8871 -0.32532,1.9986 -0.007,0.1871 0.18578,0.2028 2.48376,0.2028 1.37006,0 2.49101,0.016 2.49101,0.035 0,0.019 -0.13005,0.7622 -0.28916,1.6511 -0.15905,0.8888 -0.28937,1.6291 -0.28965,1.645 -1.7e-4,0.016 -1.92958,0.029 -4.28739,0.029 -3.35028,0 -4.28689,-0.032 -4.28689,-0.1448 z m 15.40965,0.04 c 0,-0.1276 2.73697,-15.9236 2.90778,-16.7819 l 0.12104,-0.6082 2.97521,0 c 3.25623,0 4.18773,0.1175 5.05464,0.6255 0.69616,0.408 1.26838,1.0887 1.57824,1.8773 0.38005,0.9674 0.3818,2.9992 0.003,4.0993 -0.4422,1.2861 -1.3033,2.3213 -2.3814,2.8626 -0.32153,0.1614 -0.59549,0.3026 -0.60876,0.3135 -0.0239,0.02 1.7437,7.0602 1.88174,7.4951 0.0693,0.2182 0.008,0.2244 -1.9358,0.1937 l -2.00731,-0.032 -0.72028,-3.4758 c -0.39617,-1.9117 -0.72203,-3.4889 -0.72415,-3.5048 -0.002,-0.016 -0.29223,-0.029 -0.64471,-0.029 -0.40808,0 -0.65952,0.052 -0.69222,0.1449 -0.0282,0.08 -0.2882,1.5265 -0.57768,3.2152 -0.28947,1.6887 -0.55563,3.2138 -0.59145,3.3889 l -0.0651,0.3187 -1.78667,0 c -0.99082,0 -1.78665,-0.047 -1.78665,-0.1051 z m 7.62166,-9.8073 c 1.00359,-0.4192 1.5249,-1.2783 1.52891,-2.5196 0.004,-1.4339 -0.55912,-1.9276 -2.2065,-1.9324 l -0.87661,-0.01 -0.37102,2.1724 c -0.20405,1.1948 -0.37004,2.2376 -0.36888,2.3172 0.003,0.2184 1.75118,0.1917 2.2941,-0.035 z m 30.112112,9.6517 c 0.0256,-0.1435 0.27586,-1.5584 0.55621,-3.1443 l 0.50968,-2.8836 -1.0957,-5.1517 c -0.60263,-2.8334 -1.14137,-5.3549 -1.19717,-5.6033 l -0.10154,-0.4516 1.99513,0 1.9951,0 0.43901,3.5627 c 0.24145,1.9595 0.4737,3.6009 0.51611,3.6474 0.0424,0.046 0.85523,-1.5567 1.80627,-3.5627 l 1.72918,-3.6474 2.0541,0 2.05411,0 -3.19697,5.5903 -3.19695,5.5904 -0.50379,2.8965 c -0.27707,1.5931 -0.53047,3.0138 -0.56309,3.1573 -0.0585,0.2573 -0.084,0.2606 -1.95277,0.2606 l -1.89343,0 z"
       id="path12304"
       inkscape:connector-curvature="0"
       sodipodi:nodetypes="sssssssssscsssssssssssssssssssscccccccccccccccccsssscccssccsssscsccsssscssscccccccccccssccccccsssscsscssssscscccccsssssssscscssscssscccscssscsscscssssscsscscsssscscccsccsccccscsscccscscccccssscc"
       inkscape:export-xdpi="89"
       inkscape:export-ydpi="89"
       inkscape:export-filename="C:\Roberto\bibliorato\ergy\new app\1.png" />
  </g>
</svg>
