<?xml version="1.0" encoding="utf-8"?>
<!-- Generator: Adobe Illustrator 19.0.0, SVG Export Plug-In . SVG Version: 6.00 Build 0)  -->
<svg version="1.1" id="Capa_1" xmlns="http://www.w3.org/2000/svg" xmlns:xlink="http://www.w3.org/1999/xlink" x="0px" y="0px"
	 viewBox="0 0 70.9 70.9" style="enable-background:new 0 0 70.9 70.9;" xml:space="preserve">
<g id="XMLID_727_">
	<g id="XMLID_726_">
		<path id="XMLID_2793_" d="M59.9,44.8c0.7-4-2.2-7.1-5.7-7.3c-3.5-0.1-6.9,2.9-6.2,7.2c-8.3,0-16.7,0-25,0c0.8-4.2-2.7-7.5-6.3-7.2
			c-3.2,0.2-6.2,3.1-5.6,7.2c-1.1,0-2.1,0.1-3.2-0.2c-1.4-0.4-2.1-1.3-2.2-2.7c0-0.8,0.1-1.6,0.2-2.4c0-0.2,0.1-0.4,0.2-0.5
			c0.4-0.3,0.4-0.8,0.5-1.2c0.3-0.9,0.6-1.8,0.9-2.6c0.4-0.9,1.1-1.4,2-1.7c0.7-0.2,1.3-0.5,2-0.7c2.5-0.8,4.8-1.9,6.8-3.5
			c3.4-2.5,7.2-3.8,11.4-4c3.8-0.2,7.5,0.1,11.1,1.2c3.4,1,6.5,2.8,9.1,5.2c1.3,1.2,2.7,1.8,4.4,2.1c1.8,0.3,3.7,0.7,5.5,1.1
			c2.2,0.5,3.9,1.8,5,3.8c0.5,1,0.9,1.9,0.8,3c-0.2,1.9-1.7,3.3-3.6,3.3C61.4,44.8,60.7,44.8,59.9,44.8z M18.4,33
			c4.8,0.1,9.5,0.2,14.2,0.2c-0.1-1.8-0.3-3.5-0.4-5.3C26.9,27.8,22.3,29.2,18.4,33z M48,33.4c-3.7-3.8-8.3-5.4-13.6-5.5
			c0,0.1,0,0.1,0,0.2c0.1,1.6,0.2,3.3,0.4,4.9c0,0.4,0.2,0.3,0.5,0.4c2.4,0,4.7,0.1,7.1,0.1C44.2,33.4,46.1,33.4,48,33.4z"/>
		<path id="XMLID_2792_" d="M17.1,38.9c2.6,0,4.7,2.1,4.7,4.7c0,2.6-2.1,4.7-4.7,4.7c-2.6,0-4.7-2.1-4.7-4.7
			C12.4,41,14.5,38.9,17.1,38.9z"/>
		<path id="XMLID_2791_" d="M49.3,43.6c0-2.6,2.1-4.7,4.7-4.7c2.6,0,4.7,2.1,4.7,4.7c0,2.6-2.1,4.7-4.7,4.7
			C51.4,48.3,49.3,46.2,49.3,43.6z"/>
	</g>
</g>
</svg>
